<?xml version="1.0" standalone="yes"?>

<svg version="1.1" viewBox="0.0 0.0 604.7244094488188 340.15748031496065" fill="none" stroke="none" stroke-linecap="square" stroke-miterlimit="10" xmlns="http://www.w3.org/2000/svg" xmlns:xlink="http://www.w3.org/1999/xlink"><clipPath id="p.0"><path d="m0 0l604.7244 0l0 340.15747l-604.7244 0l0 -340.15747z" clip-rule="nonzero"></path></clipPath><g clip-path="url(#p.0)"><path fill="#000000" fill-opacity="0.0" d="m0 0l604.7244 0l0 340.15747l-604.7244 0z" fill-rule="evenodd"></path><path fill="#34495e" d="m105.82512 71.89728l115.95276 0l0 7.0l14.0 -14.0l-14.0 -13.999996l0 7.0l-115.95276 0z" fill-rule="evenodd"></path><path fill="#3498db" d="m17.324488 44.592144l78.14173 0l0 40.598423l-78.14173 0z" fill-rule="evenodd"></path><path fill="#ecf0f1" d="m35.843597 62.112144l0 -8.59375l1.125 0l0 8.59375l-1.125 0zm3.0058594 0l0 -6.21875l0.9375 0l0 0.875q0.6875 -1.015625 1.984375 -1.015625q0.5625 0 1.03125 0.203125q0.484375 0.203125 0.71875 0.53125q0.234375 0.328125 0.328125 0.765625q0.046875 0.296875 0.046875 1.03125l0 3.828125l-1.046875 0l0 -3.78125q0 -0.65625 -0.125 -0.96875q-0.125 -0.3125 -0.4375 -0.5q-0.3125 -0.203125 -0.734375 -0.203125q-0.671875 0 -1.171875 0.4375q-0.484375 0.421875 -0.484375 1.609375l0 3.40625l-1.046875 0zm6.673828 -7.375l0 -1.21875l1.0625 0l0 1.21875l-1.0625 0zm0 7.375l0 -6.21875l1.0625 0l0 6.21875l-1.0625 0zm4.9628906 -0.9375l0.15625 0.921875q-0.453125 0.09375 -0.796875 0.09375q-0.578125 0 -0.890625 -0.171875q-0.3125 -0.1875 -0.453125 -0.484375q-0.125 -0.296875 -0.125 -1.25l0 -3.578125l-0.765625 0l0 -0.8125l0.765625 0l0 -1.546875l1.046875 -0.625l0 2.171875l1.0625 0l0 0.8125l-1.0625 0l0 3.640625q0 0.453125 0.046875 0.578125q0.0625 0.125 0.1875 0.203125q0.125 0.078125 0.359375 0.078125q0.1875 0 0.46875 -0.03125zm1.0371094 -6.4375l0 -1.21875l1.0625 0l0 1.21875l-1.0625 0zm0 7.375l0 -6.21875l1.0625 0l0 6.21875l-1.0625 0zm6.7285156 -0.765625q-0.59375 0.5 -1.140625 0.703125q-0.53125 0.203125 -1.15625 0.203125q-1.03125 0 -1.578125 -0.5q-0.546875 -0.5 -0.546875 -1.28125q0 -0.453125 0.203125 -0.828125q0.203125 -0.390625 0.546875 -0.609375q0.34375 -0.234375 0.765625 -0.34375q0.296875 -0.09375 0.9375 -0.171875q1.265625 -0.140625 1.875 -0.359375q0 -0.21875 0 -0.265625q0 -0.65625 -0.296875 -0.921875q-0.40625 -0.34375 -1.203125 -0.34375q-0.734375 0 -1.09375 0.265625q-0.359375 0.25 -0.53125 0.90625l-1.03125 -0.140625q0.140625 -0.65625 0.46875 -1.0625q0.328125 -0.40625 0.9375 -0.625q0.609375 -0.21875 1.40625 -0.21875q0.796875 0 1.296875 0.1875q0.5 0.1875 0.734375 0.46875q0.234375 0.28125 0.328125 0.71875q0.046875 0.265625 0.046875 0.96875l0 1.40625q0 1.46875 0.0625 1.859375q0.078125 0.390625 0.28125 0.75l-1.109375 0q-0.15625 -0.328125 -0.203125 -0.765625zm-0.09375 -2.359375q-0.578125 0.234375 -1.71875 0.40625q-0.65625 0.09375 -0.921875 0.21875q-0.265625 0.109375 -0.421875 0.328125q-0.140625 0.21875 -0.140625 0.5q0 0.421875 0.3125 0.703125q0.328125 0.28125 0.9375 0.28125q0.609375 0 1.078125 -0.265625q0.484375 -0.265625 0.703125 -0.734375q0.171875 -0.359375 0.171875 -1.046875l0 -0.390625zm2.6738281 3.125l0 -8.59375l1.0625 0l0 8.59375l-1.0625 0zm2.6972656 -7.375l0 -1.21875l1.0625 0l0 1.21875l-1.0625 0zm0 7.375l0 -6.21875l1.0625 0l0 6.21875l-1.0625 0zm2.1035156 0l0 -0.859375l3.96875 -4.546875q-0.6875 0.03125 -1.203125 0.03125l-2.53125 0l0 -0.84375l5.09375 0l0 0.6875l-3.375 3.953125l-0.65625 0.71875q0.71875 -0.046875 1.328125 -0.046875l2.890625 0l0 0.90625l-5.515625 0zm10.8125 -2.0l1.09375 0.125q-0.25 0.953125 -0.953125 1.484375q-0.703125 0.53125 -1.78125 0.53125q-1.359375 0 -2.171875 -0.84375q-0.796875 -0.84375 -0.796875 -2.359375q0 -1.5625 0.8125 -2.421875q0.8125 -0.875 2.09375 -0.875q1.25 0 2.03125 0.84375q0.796875 0.84375 0.796875 2.390625q0 0.09375 0 0.28125l-4.640625 0q0.0625 1.03125 0.578125 1.578125q0.515625 0.53125 1.296875 0.53125q0.578125 0 0.984375 -0.296875q0.421875 -0.3125 0.65625 -0.96875zm-3.453125 -1.703125l3.46875 0q-0.0625 -0.796875 -0.390625 -1.1875q-0.515625 -0.609375 -1.3125 -0.609375q-0.734375 0 -1.234375 0.484375q-0.484375 0.484375 -0.53125 1.3125z" fill-rule="nonzero"></path><path fill="#9b59b6" d="m246.13164 44.592144l88.535446 0l0 40.598423l-88.535446 0z" fill-rule="evenodd"></path><path fill="#ecf0f1" d="m266.2636 59.34652l1.0625 -0.09375q0.078125 0.65625 0.359375 1.0625q0.28125 0.40625 0.859375 0.671875q0.59375 0.25 1.328125 0.25q0.640625 0 1.140625 -0.1875q0.5 -0.203125 0.734375 -0.53125q0.25 -0.34375 0.25 -0.734375q0 -0.40625 -0.234375 -0.703125q-0.234375 -0.3125 -0.765625 -0.515625q-0.359375 -0.140625 -1.546875 -0.421875q-1.171875 -0.28125 -1.640625 -0.53125q-0.625 -0.328125 -0.921875 -0.796875q-0.296875 -0.484375 -0.296875 -1.078125q0 -0.640625 0.359375 -1.203125q0.375 -0.578125 1.078125 -0.859375q0.71875 -0.296875 1.578125 -0.296875q0.953125 0 1.6875 0.3125q0.734375 0.296875 1.125 0.90625q0.390625 0.59375 0.421875 1.34375l-1.09375 0.078125q-0.09375 -0.8125 -0.609375 -1.21875q-0.5 -0.421875 -1.484375 -0.421875q-1.03125 0 -1.5 0.375q-0.46875 0.375 -0.46875 0.90625q0 0.46875 0.328125 0.765625q0.328125 0.296875 1.703125 0.609375q1.390625 0.3125 1.90625 0.546875q0.75 0.359375 1.109375 0.890625q0.359375 0.515625 0.359375 1.21875q0 0.6875 -0.390625 1.296875q-0.390625 0.59375 -1.125 0.9375q-0.734375 0.328125 -1.65625 0.328125q-1.171875 0 -1.96875 -0.328125q-0.78125 -0.34375 -1.234375 -1.03125q-0.4375 -0.6875 -0.453125 -1.546875zm12.503906 0.765625l1.09375 0.125q-0.25 0.953125 -0.953125 1.484375q-0.703125 0.53125 -1.78125 0.53125q-1.359375 0 -2.171875 -0.84375q-0.796875 -0.84375 -0.796875 -2.359375q0 -1.5625 0.8125 -2.421875q0.8125 -0.875 2.09375 -0.875q1.25 0 2.03125 0.84375q0.796875 0.84375 0.796875 2.390625q0 0.09375 0 0.28125l-4.640625 0q0.0625 1.03125 0.578125 1.578125q0.515625 0.53125 1.296875 0.53125q0.578125 0 0.984375 -0.296875q0.421875 -0.3125 0.65625 -0.96875zm-3.453125 -1.703125l3.46875 0q-0.0625 -0.796875 -0.390625 -1.1875q-0.515625 -0.609375 -1.3125 -0.609375q-0.734375 0 -1.234375 0.484375q-0.484375 0.484375 -0.53125 1.3125zm5.845703 3.703125l0 -8.59375l1.0625 0l0 8.59375l-1.0625 0zm6.9472656 -2.0l1.09375 0.125q-0.25 0.953125 -0.953125 1.484375q-0.703125 0.53125 -1.78125 0.53125q-1.359375 0 -2.171875 -0.84375q-0.796875 -0.84375 -0.796875 -2.359375q0 -1.5625 0.8125 -2.421875q0.8125 -0.875 2.09375 -0.875q1.25 0 2.03125 0.84375q0.796875 0.84375 0.796875 2.390625q0 0.09375 0 0.28125l-4.640625 0q0.0625 1.03125 0.578125 1.578125q0.515625 0.53125 1.296875 0.53125q0.578125 0 0.984375 -0.296875q0.421875 -0.3125 0.65625 -0.96875zm-3.453125 -1.703125l3.46875 0q-0.0625 -0.796875 -0.390625 -1.1875q-0.515625 -0.609375 -1.3125 -0.609375q-0.734375 0 -1.234375 0.484375q-0.484375 0.484375 -0.53125 1.3125zm9.939453 1.421875l1.03125 0.140625q-0.171875 1.0625 -0.875 1.671875q-0.703125 0.609375 -1.71875 0.609375q-1.28125 0 -2.0625 -0.828125q-0.765625 -0.84375 -0.765625 -2.40625q0 -1.0 0.328125 -1.75q0.34375 -0.765625 1.015625 -1.140625q0.6875 -0.375 1.5 -0.375q1.0 0 1.640625 0.515625q0.65625 0.5 0.84375 1.453125l-1.03125 0.15625q-0.140625 -0.625 -0.515625 -0.9375q-0.375 -0.328125 -0.90625 -0.328125q-0.796875 0 -1.296875 0.578125q-0.5 0.5625 -0.5 1.796875q0 1.265625 0.484375 1.828125q0.484375 0.5625 1.25 0.5625q0.625 0 1.03125 -0.375q0.421875 -0.375 0.546875 -1.171875zm4.234375 1.34375l0.15625 0.921875q-0.453125 0.09375 -0.796875 0.09375q-0.578125 0 -0.890625 -0.171875q-0.3125 -0.1875 -0.453125 -0.484375q-0.125 -0.296875 -0.125 -1.25l0 -3.578125l-0.765625 0l0 -0.8125l0.765625 0l0 -1.546875l1.046875 -0.625l0 2.171875l1.0625 0l0 0.8125l-1.0625 0l0 3.640625q0 0.453125 0.046875 0.578125q0.0625 0.125 0.1875 0.203125q0.125 0.078125 0.359375 0.078125q0.1875 0 0.46875 -0.03125zm1.0371094 -6.4375l0 -1.21875l1.0625 0l0 1.21875l-1.0625 0zm0 7.375l0 -6.21875l1.0625 0l0 6.21875l-1.0625 0zm2.2753906 -3.109375q0 -1.734375 0.953125 -2.5625q0.796875 -0.6875 1.953125 -0.6875q1.28125 0 2.09375 0.84375q0.828125 0.828125 0.828125 2.3125q0 1.203125 -0.359375 1.890625q-0.359375 0.6875 -1.0625 1.078125q-0.6875 0.375 -1.5 0.375q-1.296875 0 -2.109375 -0.828125q-0.796875 -0.84375 -0.796875 -2.421875zm1.078125 0q0 1.1875 0.515625 1.78125q0.53125 0.59375 1.3125 0.59375q0.796875 0 1.3125 -0.59375q0.515625 -0.59375 0.515625 -1.8125q0 -1.15625 -0.53125 -1.75q-0.515625 -0.59375 -1.296875 -0.59375q-0.78125 0 -1.3125 0.59375q-0.515625 0.578125 -0.515625 1.78125zm5.986328 3.109375l0 -6.21875l0.9375 0l0 0.875q0.6875 -1.015625 1.984375 -1.015625q0.5625 0 1.03125 0.203125q0.484375 0.203125 0.71875 0.53125q0.234375 0.328125 0.328125 0.765625q0.046875 0.296875 0.046875 1.03125l0 3.828125l-1.046875 0l0 -3.78125q0 -0.65625 -0.125 -0.96875q-0.125 -0.3125 -0.4375 -0.5q-0.3125 -0.203125 -0.734375 -0.203125q-0.671875 0 -1.171875 0.4375q-0.484375 0.421875 -0.484375 1.609375l0 3.40625l-1.046875 0z" fill-rule="nonzero"></path><path fill="#34495e" d="m345.00934 71.89728l115.98425 0l0 7.0l14.0 -14.0l-14.0 -13.999996l0 7.0l-115.98425 0z" fill-rule="evenodd"></path><path fill="#1abc9c" d="m485.34232 44.592144l102.04727 0l0 40.598423l-102.04727 0z" fill-rule="evenodd"></path><path fill="#ecf0f1" d="m507.7966 62.112144l0 -7.578125l-2.828125 0l0 -1.015625l6.8125 0l0 1.015625l-2.84375 0l0 7.578125l-1.140625 0zm9.267609 -2.0l1.09375 0.125q-0.25 0.953125 -0.953125 1.484375q-0.703125 0.53125 -1.78125 0.53125q-1.359375 0 -2.171875 -0.84375q-0.796875 -0.84375 -0.796875 -2.359375q0 -1.5625 0.8125 -2.421875q0.8125 -0.875 2.09375 -0.875q1.25 0 2.03125 0.84375q0.796875 0.84375 0.796875 2.390625q0 0.09375 0 0.28125l-4.640625 0q0.0625 1.03125 0.578125 1.578125q0.515625 0.53125 1.296875 0.53125q0.578125 0 0.984375 -0.296875q0.421875 -0.3125 0.65625 -0.96875zm-3.453125 -1.703125l3.46875 0q-0.0625 -0.796875 -0.390625 -1.1875q-0.515625 -0.609375 -1.3125 -0.609375q-0.734375 0 -1.234375 0.484375q-0.484375 0.484375 -0.53125 1.3125zm5.861328 3.703125l0 -6.21875l0.953125 0l0 0.9375q0.359375 -0.65625 0.65625 -0.859375q0.3125 -0.21875 0.6875 -0.21875q0.53125 0 1.078125 0.328125l-0.359375 0.984375q-0.390625 -0.234375 -0.765625 -0.234375q-0.359375 0 -0.640625 0.21875q-0.265625 0.203125 -0.375 0.578125q-0.1875 0.5625 -0.1875 1.21875l0 3.265625l-1.046875 0zm4.0117188 0l0 -6.21875l0.9375 0l0 0.875q0.296875 -0.46875 0.78125 -0.734375q0.484375 -0.28125 1.109375 -0.28125q0.6875 0 1.125 0.28125q0.453125 0.28125 0.625 0.796875q0.75 -1.078125 1.921875 -1.078125q0.9375 0 1.421875 0.515625q0.5 0.5 0.5 1.578125l0 4.265625l-1.046875 0l0 -3.921875q0 -0.625 -0.109375 -0.90625q-0.09375 -0.28125 -0.359375 -0.453125q-0.265625 -0.171875 -0.640625 -0.171875q-0.65625 0 -1.09375 0.4375q-0.421875 0.4375 -0.421875 1.40625l0 3.609375l-1.0625 0l0 -4.046875q0 -0.703125 -0.265625 -1.046875q-0.25 -0.359375 -0.828125 -0.359375q-0.453125 0 -0.828125 0.234375q-0.375 0.234375 -0.546875 0.6875q-0.171875 0.453125 -0.171875 1.296875l0 3.234375l-1.046875 0zm9.996094 -7.375l0 -1.21875l1.0625 0l0 1.21875l-1.0625 0zm0 7.375l0 -6.21875l1.0625 0l0 6.21875l-1.0625 0zm2.6660156 0l0 -6.21875l0.9375 0l0 0.875q0.6875 -1.015625 1.984375 -1.015625q0.5625 0 1.03125 0.203125q0.484375 0.203125 0.71875 0.53125q0.234375 0.328125 0.328125 0.765625q0.046875 0.296875 0.046875 1.03125l0 3.828125l-1.046875 0l0 -3.78125q0 -0.65625 -0.125 -0.96875q-0.125 -0.3125 -0.4375 -0.5q-0.3125 -0.203125 -0.734375 -0.203125q-0.671875 0 -1.171875 0.4375q-0.484375 0.421875 -0.484375 1.609375l0 3.40625l-1.046875 0zm10.736328 -0.765625q-0.59375 0.5 -1.140625 0.703125q-0.53125 0.203125 -1.15625 0.203125q-1.03125 0 -1.578125 -0.5q-0.546875 -0.5 -0.546875 -1.28125q0 -0.453125 0.203125 -0.828125q0.203125 -0.390625 0.546875 -0.609375q0.34375 -0.234375 0.765625 -0.34375q0.296875 -0.09375 0.9375 -0.171875q1.265625 -0.140625 1.875 -0.359375q0 -0.21875 0 -0.265625q0 -0.65625 -0.296875 -0.921875q-0.40625 -0.34375 -1.203125 -0.34375q-0.734375 0 -1.09375 0.265625q-0.359375 0.25 -0.53125 0.90625l-1.03125 -0.140625q0.140625 -0.65625 0.46875 -1.0625q0.328125 -0.40625 0.9375 -0.625q0.609375 -0.21875 1.40625 -0.21875q0.796875 0 1.296875 0.1875q0.5 0.1875 0.734375 0.46875q0.234375 0.28125 0.328125 0.71875q0.046875 0.265625 0.046875 0.96875l0 1.40625q0 1.46875 0.0625 1.859375q0.078125 0.390625 0.28125 0.75l-1.109375 0q-0.15625 -0.328125 -0.203125 -0.765625zm-0.09375 -2.359375q-0.578125 0.234375 -1.71875 0.40625q-0.65625 0.09375 -0.921875 0.21875q-0.265625 0.109375 -0.421875 0.328125q-0.140625 0.21875 -0.140625 0.5q0 0.421875 0.3125 0.703125q0.328125 0.28125 0.9375 0.28125q0.609375 0 1.078125 -0.265625q0.484375 -0.265625 0.703125 -0.734375q0.171875 -0.359375 0.171875 -1.046875l0 -0.390625zm5.001953 2.1875l0.15625 0.921875q-0.453125 0.09375 -0.796875 0.09375q-0.578125 0 -0.890625 -0.171875q-0.3125 -0.1875 -0.453125 -0.484375q-0.125 -0.296875 -0.125 -1.25l0 -3.578125l-0.765625 0l0 -0.8125l0.765625 0l0 -1.546875l1.046875 -0.625l0 2.171875l1.0625 0l0 0.8125l-1.0625 0l0 3.640625q0 0.453125 0.046875 0.578125q0.0625 0.125 0.1875 0.203125q0.125 0.078125 0.359375 0.078125q0.1875 0 0.46875 -0.03125zm1.0371094 -6.4375l0 -1.21875l1.0625 0l0 1.21875l-1.0625 0zm0 7.375l0 -6.21875l1.0625 0l0 6.21875l-1.0625 0zm2.2753906 -3.109375q0 -1.734375 0.953125 -2.5625q0.796875 -0.6875 1.953125 -0.6875q1.28125 0 2.09375 0.84375q0.828125 0.828125 0.828125 2.3125q0 1.203125 -0.359375 1.890625q-0.359375 0.6875 -1.0625 1.078125q-0.6875 0.375 -1.5 0.375q-1.296875 0 -2.109375 -0.828125q-0.796875 -0.84375 -0.796875 -2.421875zm1.078125 0q0 1.1875 0.515625 1.78125q0.53125 0.59375 1.3125 0.59375q0.796875 0 1.3125 -0.59375q0.515625 -0.59375 0.515625 -1.8125q0 -1.15625 -0.53125 -1.75q-0.515625 -0.59375 -1.296875 -0.59375q-0.78125 0 -1.3125 0.59375q-0.515625 0.578125 -0.515625 1.78125zm5.986328 3.109375l0 -6.21875l0.9375 0l0 0.875q0.6875 -1.015625 1.984375 -1.015625q0.5625 0 1.03125 0.203125q0.484375 0.203125 0.71875 0.53125q0.234375 0.328125 0.328125 0.765625q0.046875 0.296875 0.046875 1.03125l0 3.828125l-1.046875 0l0 -3.78125q0 -0.65625 -0.125 -0.96875q-0.125 -0.3125 -0.4375 -0.5q-0.3125 -0.203125 -0.734375 -0.203125q-0.671875 0 -1.171875 0.4375q-0.484375 0.421875 -0.484375 1.609375l0 3.40625l-1.046875 0z" fill-rule="nonzero"></path><path fill="#34495e" d="m411.15646 82.49282l0 171.33234c0 16.947952 -13.739044 30.686996 -30.686981 30.686996l-15.431183 0l0 11.051544l-24.02356 -16.737213l24.02356 -16.737244l0 11.051544l15.431183 0l0 0c10.667725 0 19.315613 -8.647919 19.315613 -19.315628l0 -171.33234z" fill-rule="evenodd"></path><path fill="#e74c3c" d="m233.39635 254.94904l102.04726 0l0 40.59842l-102.04726 0z" fill-rule="evenodd"></path><path fill="#ecf0f1" d="m264.14264 269.4534l1.125 0.296875q-0.359375 1.390625 -1.28125 2.125q-0.921875 0.734375 -2.265625 0.734375q-1.390625 0 -2.265625 -0.5625q-0.875 -0.5625 -1.328125 -1.625q-0.453125 -1.078125 -0.453125 -2.3125q0 -1.34375 0.515625 -2.34375q0.515625 -1.0 1.453125 -1.515625q0.953125 -0.515625 2.09375 -0.515625q1.28125 0 2.15625 0.65625q0.890625 0.65625 1.234375 1.84375l-1.125 0.265625q-0.296875 -0.9375 -0.875 -1.359375q-0.5625 -0.4375 -1.421875 -0.4375q-0.984375 0 -1.65625 0.484375q-0.65625 0.46875 -0.9375 1.265625q-0.265625 0.796875 -0.265625 1.65625q0 1.09375 0.3125 1.90625q0.328125 0.8125 1.0 1.21875q0.671875 0.40625 1.46875 0.40625q0.953125 0 1.609375 -0.546875q0.671875 -0.546875 0.90625 -1.640625zm2.3847656 3.015625l0 -6.21875l0.953125 0l0 0.9375q0.359375 -0.65625 0.65625 -0.859375q0.3125 -0.21875 0.6875 -0.21875q0.53125 0 1.078125 0.328125l-0.359375 0.984375q-0.390625 -0.234375 -0.765625 -0.234375q-0.359375 0 -0.640625 0.21875q-0.265625 0.203125 -0.375 0.578125q-0.1875 0.5625 -0.1875 1.21875l0 3.265625l-1.046875 0zm3.6210938 -3.109375q0 -1.734375 0.953125 -2.5625q0.796875 -0.6875 1.953125 -0.6875q1.28125 0 2.09375 0.84375q0.828125 0.828125 0.828125 2.3125q0 1.203125 -0.359375 1.890625q-0.359375 0.6875 -1.0625 1.078125q-0.6875 0.375 -1.5 0.375q-1.296875 0 -2.109375 -0.828125q-0.796875 -0.84375 -0.796875 -2.421875zm1.078125 0q0 1.1875 0.515625 1.78125q0.53125 0.59375 1.3125 0.59375q0.796875 0 1.3125 -0.59375q0.515625 -0.59375 0.515625 -1.8125q0 -1.15625 -0.53125 -1.75q-0.515625 -0.59375 -1.296875 -0.59375q-0.78125 0 -1.3125 0.59375q-0.515625 0.578125 -0.515625 1.78125zm5.564453 1.25l1.03125 -0.15625q0.09375 0.625 0.484375 0.953125q0.40625 0.328125 1.140625 0.328125q0.71875 0 1.0625 -0.28125q0.359375 -0.296875 0.359375 -0.703125q0 -0.359375 -0.3125 -0.5625q-0.21875 -0.140625 -1.078125 -0.359375q-1.15625 -0.296875 -1.609375 -0.5q-0.4375 -0.21875 -0.671875 -0.59375q-0.234375 -0.375 -0.234375 -0.84375q0 -0.40625 0.1875 -0.765625q0.1875 -0.359375 0.515625 -0.59375q0.25 -0.171875 0.671875 -0.296875q0.421875 -0.125 0.921875 -0.125q0.71875 0 1.265625 0.21875q0.5625 0.203125 0.828125 0.5625q0.265625 0.359375 0.359375 0.953125l-1.03125 0.140625q-0.0625 -0.46875 -0.40625 -0.734375q-0.328125 -0.28125 -0.953125 -0.28125q-0.71875 0 -1.03125 0.25q-0.3125 0.234375 -0.3125 0.5625q0 0.203125 0.125 0.359375q0.140625 0.171875 0.40625 0.28125q0.15625 0.0625 0.9375 0.265625q1.125 0.3125 1.5625 0.5q0.4375 0.1875 0.6875 0.546875q0.25 0.359375 0.25 0.90625q0 0.53125 -0.3125 1.0q-0.296875 0.453125 -0.875 0.71875q-0.578125 0.25 -1.3125 0.25q-1.21875 0 -1.859375 -0.5q-0.625 -0.515625 -0.796875 -1.5zm6.0 0l1.03125 -0.15625q0.09375 0.625 0.484375 0.953125q0.40625 0.328125 1.140625 0.328125q0.71875 0 1.0625 -0.28125q0.359375 -0.296875 0.359375 -0.703125q0 -0.359375 -0.3125 -0.5625q-0.21875 -0.140625 -1.078125 -0.359375q-1.15625 -0.296875 -1.609375 -0.5q-0.4375 -0.21875 -0.671875 -0.59375q-0.234375 -0.375 -0.234375 -0.84375q0 -0.40625 0.1875 -0.765625q0.1875 -0.359375 0.515625 -0.59375q0.25 -0.171875 0.671875 -0.296875q0.421875 -0.125 0.921875 -0.125q0.71875 0 1.265625 0.21875q0.5625 0.203125 0.828125 0.5625q0.265625 0.359375 0.359375 0.953125l-1.03125 0.140625q-0.0625 -0.46875 -0.40625 -0.734375q-0.328125 -0.28125 -0.953125 -0.28125q-0.71875 0 -1.03125 0.25q-0.3125 0.234375 -0.3125 0.5625q0 0.203125 0.125 0.359375q0.140625 0.171875 0.40625 0.28125q0.15625 0.0625 0.9375 0.265625q1.125 0.3125 1.5625 0.5q0.4375 0.1875 0.6875 0.546875q0.25 0.359375 0.25 0.90625q0 0.53125 -0.3125 1.0q-0.296875 0.453125 -0.875 0.71875q-0.578125 0.25 -1.3125 0.25q-1.21875 0 -1.859375 -0.5q-0.625 -0.515625 -0.796875 -1.5zm6.03125 -1.25q0 -1.734375 0.953125 -2.5625q0.796875 -0.6875 1.953125 -0.6875q1.28125 0 2.09375 0.84375q0.828125 0.828125 0.828125 2.3125q0 1.203125 -0.359375 1.890625q-0.359375 0.6875 -1.0625 1.078125q-0.6875 0.375 -1.5 0.375q-1.296875 0 -2.109375 -0.828125q-0.796875 -0.84375 -0.796875 -2.421875zm1.078125 0q0 1.1875 0.515625 1.78125q0.53125 0.59375 1.3125 0.59375q0.796875 0 1.3125 -0.59375q0.515625 -0.59375 0.515625 -1.8125q0 -1.15625 -0.53125 -1.75q-0.515625 -0.59375 -1.296875 -0.59375q-0.78125 0 -1.3125 0.59375q-0.515625 0.578125 -0.515625 1.78125zm7.705078 3.109375l-2.359375 -6.21875l1.109375 0l1.34375 3.71875q0.203125 0.609375 0.390625 1.25q0.140625 -0.484375 0.390625 -1.171875l1.390625 -3.796875l1.078125 0l-2.359375 6.21875l-0.984375 0zm8.53125 -2.0l1.09375 0.125q-0.25 0.953125 -0.953125 1.484375q-0.703125 0.53125 -1.78125 0.53125q-1.359375 0 -2.171875 -0.84375q-0.796875 -0.84375 -0.796875 -2.359375q0 -1.5625 0.8125 -2.421875q0.8125 -0.875 2.09375 -0.875q1.25 0 2.03125 0.84375q0.796875 0.84375 0.796875 2.390625q0 0.09375 0 0.28125l-4.640625 0q0.0625 1.03125 0.578125 1.578125q0.515625 0.53125 1.296875 0.53125q0.578125 0 0.984375 -0.296875q0.421875 -0.3125 0.65625 -0.96875zm-3.453125 -1.703125l3.46875 0q-0.0625 -0.796875 -0.390625 -1.1875q-0.515625 -0.609375 -1.3125 -0.609375q-0.734375 0 -1.234375 0.484375q-0.484375 0.484375 -0.53125 1.3125zm5.861328 3.703125l0 -6.21875l0.953125 0l0 0.9375q0.359375 -0.65625 0.65625 -0.859375q0.3125 -0.21875 0.6875 -0.21875q0.53125 0 1.078125 0.328125l-0.359375 0.984375q-0.390625 -0.234375 -0.765625 -0.234375q-0.359375 0 -0.640625 0.21875q-0.265625 0.203125 -0.375 0.578125q-0.1875 0.5625 -0.1875 1.21875l0 3.265625l-1.046875 0z" fill-rule="nonzero"></path><path fill="#34495e" d="m212.67665 283.3593l-21.686249 0l0 0c-12.526428 0 -22.681091 -10.154694 -22.681091 -22.681122l0 -29.334625l-7.475174 0l13.955475 -12.960632l13.95549 12.960632l-7.475174 0l0 29.334625l0 0c0 5.368469 4.352005 9.7204895 9.720474 9.7204895l21.686249 0z" fill-rule="evenodd"></path><path fill="#e74c3c" d="m119.77591 168.72908l102.04724 0l0 40.598434l-102.04724 0z" fill-rule="evenodd"></path><path fill="#ecf0f1" d="m148.67746 186.24908l0 -8.59375l1.71875 0l2.03125 6.078125q0.28125 0.859375 0.40625 1.28125q0.140625 -0.46875 0.453125 -1.375l2.0625 -5.984375l1.53125 0l0 8.59375l-1.09375 0l0 -7.1875l-2.5 7.1875l-1.03125 0l-2.484375 -7.3125l0 7.3125l-1.09375 0zm13.980469 0l0 -0.921875q-0.734375 1.0625 -1.984375 1.0625q-0.546875 0 -1.03125 -0.203125q-0.46875 -0.21875 -0.703125 -0.53125q-0.234375 -0.328125 -0.328125 -0.796875q-0.0625 -0.296875 -0.0625 -0.984375l0 -3.84375l1.0625 0l0 3.453125q0 0.8125 0.0625 1.109375q0.09375 0.40625 0.40625 0.65625q0.328125 0.234375 0.8125 0.234375q0.46875 0 0.875 -0.234375q0.421875 -0.25 0.59375 -0.671875q0.1875 -0.421875 0.1875 -1.21875l0 -3.328125l1.046875 0l0 6.21875l-0.9375 0zm4.892578 -0.9375l0.15625 0.921875q-0.453125 0.09375 -0.796875 0.09375q-0.578125 0 -0.890625 -0.171875q-0.3125 -0.1875 -0.453125 -0.484375q-0.125 -0.296875 -0.125 -1.25l0 -3.578125l-0.765625 0l0 -0.8125l0.765625 0l0 -1.546875l1.046875 -0.625l0 2.171875l1.0625 0l0 0.8125l-1.0625 0l0 3.640625q0 0.453125 0.046875 0.578125q0.0625 0.125 0.1875 0.203125q0.125 0.078125 0.359375 0.078125q0.1875 0 0.46875 -0.03125zm5.0996094 0.171875q-0.59375 0.5 -1.140625 0.703125q-0.53125 0.203125 -1.15625 0.203125q-1.03125 0 -1.578125 -0.5q-0.546875 -0.5 -0.546875 -1.28125q0 -0.453125 0.203125 -0.828125q0.203125 -0.390625 0.546875 -0.609375q0.34375 -0.234375 0.765625 -0.34375q0.296875 -0.09375 0.9375 -0.171875q1.265625 -0.140625 1.875 -0.359375q0 -0.21875 0 -0.265625q0 -0.65625 -0.296875 -0.921875q-0.40625 -0.34375 -1.203125 -0.34375q-0.734375 0 -1.09375 0.265625q-0.359375 0.25 -0.53125 0.90625l-1.03125 -0.140625q0.140625 -0.65625 0.46875 -1.0625q0.328125 -0.40625 0.9375 -0.625q0.609375 -0.21875 1.40625 -0.21875q0.796875 0 1.296875 0.1875q0.5 0.1875 0.734375 0.46875q0.234375 0.28125 0.328125 0.71875q0.046875 0.265625 0.046875 0.96875l0 1.40625q0 1.46875 0.0625 1.859375q0.078125 0.390625 0.28125 0.75l-1.109375 0q-0.15625 -0.328125 -0.203125 -0.765625zm-0.09375 -2.359375q-0.578125 0.234375 -1.71875 0.40625q-0.65625 0.09375 -0.921875 0.21875q-0.265625 0.109375 -0.421875 0.328125q-0.140625 0.21875 -0.140625 0.5q0 0.421875 0.3125 0.703125q0.328125 0.28125 0.9375 0.28125q0.609375 0 1.078125 -0.265625q0.484375 -0.265625 0.703125 -0.734375q0.171875 -0.359375 0.171875 -1.046875l0 -0.390625zm5.001953 2.1875l0.15625 0.921875q-0.453125 0.09375 -0.796875 0.09375q-0.578125 0 -0.890625 -0.171875q-0.3125 -0.1875 -0.453125 -0.484375q-0.125 -0.296875 -0.125 -1.25l0 -3.578125l-0.765625 0l0 -0.8125l0.765625 0l0 -1.546875l1.046875 -0.625l0 2.171875l1.0625 0l0 0.8125l-1.0625 0l0 3.640625q0 0.453125 0.046875 0.578125q0.0625 0.125 0.1875 0.203125q0.125 0.078125 0.359375 0.078125q0.1875 0 0.46875 -0.03125zm1.0371094 -6.4375l0 -1.21875l1.0625 0l0 1.21875l-1.0625 0zm0 7.375l0 -6.21875l1.0625 0l0 6.21875l-1.0625 0zm2.2753906 -3.109375q0 -1.734375 0.953125 -2.5625q0.796875 -0.6875 1.953125 -0.6875q1.28125 0 2.09375 0.84375q0.828125 0.828125 0.828125 2.3125q0 1.203125 -0.359375 1.890625q-0.359375 0.6875 -1.0625 1.078125q-0.6875 0.375 -1.5 0.375q-1.296875 0 -2.109375 -0.828125q-0.796875 -0.84375 -0.796875 -2.421875zm1.078125 0q0 1.1875 0.515625 1.78125q0.53125 0.59375 1.3125 0.59375q0.796875 0 1.3125 -0.59375q0.515625 -0.59375 0.515625 -1.8125q0 -1.15625 -0.53125 -1.75q-0.515625 -0.59375 -1.296875 -0.59375q-0.78125 0 -1.3125 0.59375q-0.515625 0.578125 -0.515625 1.78125zm5.986328 3.109375l0 -6.21875l0.9375 0l0 0.875q0.6875 -1.015625 1.984375 -1.015625q0.5625 0 1.03125 0.203125q0.484375 0.203125 0.71875 0.53125q0.234375 0.328125 0.328125 0.765625q0.046875 0.296875 0.046875 1.03125l0 3.828125l-1.046875 0l0 -3.78125q0 -0.65625 -0.125 -0.96875q-0.125 -0.3125 -0.4375 -0.5q-0.3125 -0.203125 -0.734375 -0.203125q-0.671875 0 -1.171875 0.4375q-0.484375 0.421875 -0.484375 1.609375l0 3.40625l-1.046875 0z" fill-rule="nonzero"></path><path fill="#34495e" d="m176.98224 156.24495l0 -52.519684l6.1811066 0l-12.362213 -12.362198l-12.362198 12.362198l6.1811066 0l0 52.519684z" fill-rule="evenodd"></path></g></svg>

